<svg id="Layer_1" data-name="Layer 1" xmlns="http://www.w3.org/2000/svg" xmlns:xlink="http://www.w3.org/1999/xlink" viewBox="0 0 1010 285.85"><defs><style>.cls-1{fill:#26ace2;}.cls-2{fill:#fff;}.cls-3{fill:#454444;}.cls-4{fill:#6ac06c;}.cls-5{fill:url(#linear-gradient);}.cls-6{fill:url(#linear-gradient-2);}.cls-7{fill:#543f94;}.cls-8{fill:#0c65b1;}</style><linearGradient id="linear-gradient" x1="319.63" y1="284.87" x2="321.16" y2="-0.98" gradientUnits="userSpaceOnUse"><stop offset="0" stop-color="#8ec745"/><stop offset="0.16" stop-color="#68bf6e"/><stop offset="0.32" stop-color="#2aba98"/><stop offset="0.45" stop-color="#25abe2"/><stop offset="0.63" stop-color="#0d69b3"/><stop offset="0.74" stop-color="#5c3d92"/><stop offset="0.88" stop-color="#a12a81"/><stop offset="1" stop-color="#c52269"/></linearGradient><linearGradient id="linear-gradient-2" x1="319.81" y1="253.08" x2="320.98" y2="34.29" xlink:href="#linear-gradient"/></defs><path class="cls-1" d="M646.63,263.91c-.27-.86.1-1.29,1-1.39A1.54,1.54,0,0,1,646.63,263.91Z" transform="translate(-38 -60.56)"/><path class="cls-2" d="M146.42,136.13c-.12-3.44.23-6.9-.47-10.32a9.12,9.12,0,0,0-3.75-5.8,27.94,27.94,0,0,0-3.82-2.22,77.33,77.33,0,0,0-24.57-7.08,84.33,84.33,0,0,0-37.39,3.17c-9.07,3-17,7.66-23.34,14.88-7.8,8.89-11.4,19.37-11.92,31.08-.89,20.07,7.2,35.44,24,46.31,9.3,6,19.53,10.16,29.56,14.71a75.13,75.13,0,0,1,16.7,9.9c9.81,8,7.88,21.67,2.54,28.21-3.74,4.6-8.84,6.91-14.37,8.11a56.13,56.13,0,0,1-23.79-.26,79.63,79.63,0,0,1-25.28-10.31,23.44,23.44,0,0,0-4.95-2.62c-3.35-1.1-5.59.09-6.54,3.47a8.2,8.2,0,0,0-.18.86c-1.23,6.16-.94,12.36-.45,18.55.39,4.79,3,8.08,7.06,10.57,8.31,5,17.41,7.74,26.84,9.49a92.48,92.48,0,0,0,29.7.74c9.34-1.28,18.31-3.61,26.65-8.12,11-6,19.26-14.54,24.19-26.12,3.59-8.4,4.57-17.26,4.13-26.31-.71-14.78-7.16-26.58-18.69-35.69-7.47-5.91-16.06-9.88-24.64-13.82-5.64-2.59-11.45-4.77-17-7.66-4.9-2.57-9.61-5.37-13.34-9.58a18.34,18.34,0,0,1-1.85-21.71c3.29-5.5,8.62-8,14.6-9a48.37,48.37,0,0,1,24.15,2.34,120.88,120.88,0,0,1,18.25,8.29c3.89,2.11,6.45.86,7.33-3.45a29.57,29.57,0,0,0,.55-4.69C146.49,140.07,146.42,138.1,146.42,136.13Z" transform="translate(-38 -60.56)"/><path class="cls-3" d="M721.55,175.86q0-29.13,0-58.26c0-4.08.57-4.79,4.57-6a21.53,21.53,0,0,1,4.33-.91,107.89,107.89,0,0,1,19.19,0,23.14,23.14,0,0,1,5.72,1.41,4.56,4.56,0,0,1,3.35,4.67c0,.89,0,1.78,0,2.66q0,53.08,0,106.17a51.09,51.09,0,0,0,3.74,20.19c3.95,9.34,10.68,15.68,20.43,18.63a45.25,45.25,0,0,0,26.77,0c11-3.33,17.72-10.89,21.33-21.52a50.92,50.92,0,0,0,2.51-16.57q0-53.68,0-107.36c0-.79,0-1.57,0-2.36a4.54,4.54,0,0,1,3.38-4.64,27,27,0,0,1,8.1-1.53,139.94,139.94,0,0,1,14.77,0,25.94,25.94,0,0,1,6.93,1.4c2.65.9,3.46,2,3.46,4.78,0,37.76.14,75.52-.07,113.27-.07,14.26-3.72,27.7-11.95,39.57a56.37,56.37,0,0,1-21,18.16c-9.15,4.7-18.89,7.07-29.06,8.27a116,116,0,0,1-33-.9c-11.2-1.88-21.71-5.63-30.76-12.76a56.18,56.18,0,0,1-18.68-27,81.85,81.85,0,0,1-4.09-26.44C721.6,211.15,721.55,193.51,721.55,175.86Z" transform="translate(-38 -60.56)"/><path class="cls-3" d="M147.42,135.44c0,2,.07,3.94,0,5.91a29.57,29.57,0,0,1-.55,4.69c-.88,4.31-3.44,5.56-7.33,3.45a120.88,120.88,0,0,0-18.25-8.29,48.6,48.6,0,0,0-24.15-2.34c-6,1-11.31,3.51-14.6,9a18.34,18.34,0,0,0,1.85,21.71c3.73,4.21,8.44,7,13.34,9.58,5.5,2.89,11.31,5.07,17,7.66,8.58,4,17.17,7.91,24.64,13.82,11.53,9.11,18,20.92,18.69,35.69.44,9-.54,17.91-4.13,26.32-4.93,11.57-13.16,20.14-24.19,26.11-8.34,4.51-17.31,6.84-26.65,8.13a92.76,92.76,0,0,1-29.7-.75c-9.43-1.74-18.53-4.45-26.84-9.49-4.1-2.49-6.67-5.78-7.06-10.57-.49-6.19-.78-12.39.45-18.54a8.38,8.38,0,0,1,.18-.87c1-3.37,3.19-4.56,6.54-3.47a23.44,23.44,0,0,1,4.95,2.62,79.63,79.63,0,0,0,25.28,10.31,56,56,0,0,0,23.79.26c5.53-1.2,10.63-3.51,14.37-8.11,5.34-6.54,7.27-20.25-2.54-28.2a75.56,75.56,0,0,0-16.7-9.91c-10-4.55-20.26-8.7-29.56-14.71-16.82-10.87-24.91-26.24-24-46.31.52-11.71,4.12-22.19,11.92-31.08,6.33-7.22,14.27-11.93,23.34-14.87A84.33,84.33,0,0,1,114.81,110a77.33,77.33,0,0,1,24.57,7.08,29.08,29.08,0,0,1,3.82,2.23,9.07,9.07,0,0,1,3.75,5.79C147.65,128.54,147.3,132,147.42,135.44Z" transform="translate(-38 -60.56)"/><path class="cls-3" d="M929.31,267.88a39.1,39.1,0,0,1,.55-10.58c.93-4.18,3.56-5.59,7.44-3.75,2.84,1.35,5.47,3.12,8.25,4.6,9.48,5,19.4,8.65,30.25,9.11A66.72,66.72,0,0,0,987,267a30.06,30.06,0,0,0,14.93-5.87c8.34-6.44,10.56-21.27,2.13-29.36A53.49,53.49,0,0,0,989.47,222c-6.87-3.2-13.85-6.16-20.66-9.45-8.16-4-16.07-8.35-22.54-14.89a46.87,46.87,0,0,1-14.1-31.56c-.4-7.86.21-15.54,3-23A47.23,47.23,0,0,1,954.66,119a60.24,60.24,0,0,1,17.94-7.34,84.61,84.61,0,0,1,32.28-1.64,77.72,77.72,0,0,1,24,6.89,31.66,31.66,0,0,1,3.85,2.17,8.62,8.62,0,0,1,4.1,6.19,82.89,82.89,0,0,1,0,20.34,9.3,9.3,0,0,1-.39,1.72c-.89,2.62-2.64,3.57-5.28,2.85a11.78,11.78,0,0,1-2.41-1.08c-7.89-4.3-16-8.16-24.87-9.88-7.23-1.39-14.48-1.61-21.58.87-15.3,5.36-15,23.14-7.31,30.3a58.41,58.41,0,0,0,12.83,8.84c5.49,2.88,11.29,5.08,16.92,7.65,7.7,3.52,15.37,7.1,22.27,12.07,12.53,9,19.87,21.07,20.84,36.66.67,10.8-.84,21.19-5.95,30.91a52.94,52.94,0,0,1-22.22,22.16c-8.43,4.58-17.5,6.9-26.94,8.2a92.12,92.12,0,0,1-29.41-.74c-9.42-1.74-18.51-4.45-26.85-9.46-4.56-2.76-7-6.47-7.16-11.74C929.25,272.61,929.31,270.25,929.31,267.88Z" transform="translate(-38 -60.56)"/><path class="cls-3" d="M561.72,201.55V121.14c0-.79,0-1.58,0-2.36.09-2.94,1.27-4.56,4.13-5.35a29.68,29.68,0,0,1,5.5-1.06c7.47-.63,14.95-1,22.34.73a9.6,9.6,0,0,1,3,1.08,4.18,4.18,0,0,1,2.26,3.87c0,.79,0,1.58,0,2.37q0,70.2,0,140.41c0,4.23-.47,3.64,3.57,3.64,17.44,0,34.88.09,52.32,0,4.44,0,5.49,1.7,6.13,4.86a53.46,53.46,0,0,1,.09,20.25,11.87,11.87,0,0,1-.86,2.81,4.18,4.18,0,0,1-4.15,2.76c-.59,0-1.18,0-1.77,0H573.63c-.88,0-1.78,0-2.65-.05-5.09-.5-8.58-4-9.11-9.27a46.42,46.42,0,0,1-.14-4.72Q561.72,241.31,561.72,201.55Z" transform="translate(-38 -60.56)"/><path class="cls-4" d="M326,307.58a.38.38,0,0,1,.4.27C326.18,307.93,326.05,307.83,326,307.58Z" transform="translate(-38 -60.56)"/><path class="cls-1" d="M501.89,262a1.26,1.26,0,0,1,1-1.26C503,261.44,502.67,261.9,501.89,262Z" transform="translate(-38 -60.56)"/><path class="cls-4" d="M381.15,299.17l.71.12C381.57,299.56,381.33,299.55,381.15,299.17Z" transform="translate(-38 -60.56)"/><polygon class="cls-1" points="299.8 194.21 299.87 194.14 299.79 194.2 299.8 194.21"/><path class="cls-1" d="M343.65,260.43c.29,0,.41.09.4.37A.67.67,0,0,1,343.65,260.43Z" transform="translate(-38 -60.56)"/><path class="cls-1" d="M334.74,251.54l.23.06,0,.23A.48.48,0,0,1,334.74,251.54Z" transform="translate(-38 -60.56)"/><circle class="cls-5" cx="320.39" cy="142.93" r="142.93"/><circle class="cls-2" cx="320.39" cy="144.44" r="120.49"/><circle class="cls-6" cx="320.39" cy="144.44" r="109.4"/><path class="cls-2" d="M269.7,181.42a98.69,98.69,0,0,0,3.74-10.86c1.48-3,2.95-6,4.44-8.93,2.24-4.49,5.29-8.47,7.92-12.72,2.54-2.17,4.38-5,6.71-7.36A92.86,92.86,0,0,1,326,119.43a88.8,88.8,0,0,1,32.33-6c22.65.09,42.57,7.58,59.85,22.23,5,4.3,9.32,9.31,13.64,14.29a175.51,175.51,0,0,1,9.38,15.42c0,1.45,1,2.53,1.52,3.75,2.74,6.21,4.26,12.77,5.86,19.31A133,133,0,0,1,449.77,211c-.32,3.16-.63,6.32-.95,9.49-1.3,4.5-2,9.17-3.59,13.6l-3.06,8.55c-1.79,2.24-2.63,5-4,7.45a118.7,118.7,0,0,1-11.75,16.5c-2.92,2.48-5.47,5.32-8.39,7.82a89.68,89.68,0,0,1-46,21.11,90.83,90.83,0,0,1-77.21-24.8,10.63,10.63,0,0,0-2.21-1.92,106.35,106.35,0,0,1-11.24-14.49,14.76,14.76,0,0,0-2.18-3.09c-1.39-3.44-3.38-6.59-4.76-10a95.73,95.73,0,0,1-5.43-17c-.14-.72-.06-1.61-.94-2q-.52-7.35-1.07-14.71c.15-5.11,0-10.23.85-15.29C268.4,188.56,269.07,185,269.7,181.42Z" transform="translate(-38 -60.56)"/><path class="cls-7" d="M498,196.21c-.76-.53-.77-1.09-.08-1.68A1.35,1.35,0,0,1,498,196.21Z" transform="translate(-38 -60.56)"/><path class="cls-8" d="M467.2,222.29c-.84-.65-.48-1,.31-1.21C467.62,221.54,467.66,222,467.2,222.29Z" transform="translate(-38 -60.56)"/></svg>